Coordinates
version=1
nRows=14
nColumns=24
inDegrees=yes

Units are S.I. units (second, meters, Newtons, ...)
Angles are in degrees.

endheader
time	pelvis_tilt	pelvis_list	pelvis_rotation	pelvis_tx	pelvis_ty	pelvis_tz	hip_flexion_r	hip_adduction_r	hip_rotation_r	knee_angle_r	ankle_angle_r	subtalar_angle_r	mtp_angle_r	hip_flexion_l	hip_adduction_l	hip_rotation_l	knee_angle_l	ankle_angle_l	subtalar_angle_l	mtp_angle_l	lumbar_extension	lumbar_bending	lumbar_rotation
      4.37000000	     -0.00878915	      7.51708792	      5.98406798	      0.42632227	      1.03461756	     -0.25114656	     21.07540727	     -7.49209769	    -13.11162403	     -6.88386278	      4.73643280	    -10.18733460	      0.00000000	    -21.90032450	      7.05524745	      2.42523338	    -13.58404260	     -5.70112959	     -6.62134455	      0.00000000	    -14.43127033	     -3.95419094	    -22.97122710
      4.38000000	      0.11714817	      7.11188471	      6.08852544	      0.44726776	      1.03475189	     -0.24929513	     20.54950136	     -6.95873483	    -12.42296157	     -8.05343138	      2.95295456	    -11.95442540	      0.00000000	    -20.84904602	      6.17404225	      0.23044113	    -17.05143755	     -8.15540951	     -5.73884575	      0.00000000	    -14.08004501	     -3.66016505	    -22.67849955
      4.39000000	      0.11384691	      6.57157700	      6.07960694	      0.46783566	      1.03509605	     -0.24738531	     20.17541974	     -6.24079938	    -11.48440395	     -9.21583700	      1.26478451	    -13.89199204	      0.00000000	    -19.46351590	      5.20700962	     -1.61432156	    -20.70969872	    -11.10299124	     -6.00023199	      0.00000000	    -13.61398280	     -3.24756993	    -22.15792287
      4.40000000	      0.13838976	      5.83784161	      5.97357115	      0.48800739	      1.03584576	     -0.24549556	     19.76673312	     -5.29081565	    -10.61700275	    -10.35244691	      0.15101721	    -15.51966892	      0.00000000	    -17.90470353	      4.09128351	     -3.11994744	    -24.54547186	    -14.21270039	     -7.26413162	      0.00000000	    -13.22092783	     -2.60442499	    -21.44101300
      4.41000000	      0.10164079	      4.98388423	      5.77217849	      0.50771802	      1.03685695	     -0.24370324	     19.40689254	     -4.21701610	    -10.02460293	    -11.45310665	     -0.04380701	    -16.38206765	      0.00000000	    -16.09652566	      2.95096718	     -4.23530771	    -28.52587670	    -17.28390713	     -9.54139912	      0.00000000	    -12.81094765	     -1.81778741	    -20.52115571
      4.42000000	      0.07550601	      3.98166140	      5.54955248	      0.52699723	      1.03817743	     -0.24203850	     18.86447192	     -2.96162855	     -9.51588095	    -12.23127183	      0.05849661	    -17.13466671	      0.00000000	    -14.12886724	      1.72703660	     -5.00254753	    -32.59631519	    -20.05866170	    -12.63752025	      0.00000000	    -12.46494363	     -0.84330504	    -19.50097441
      4.43000000	      0.00981405	      2.88700871	      5.34703132	      0.54585777	      1.03971483	     -0.24052297	     18.13541881	     -1.59718077	     -9.13808549	    -12.58417136	      0.47100932	    -17.64630796	      0.00000000	    -11.99023930	      0.48938180	     -5.40573904	    -36.64651221	    -22.45674983	    -16.45573293	      0.00000000	    -12.13608388	      0.24907335	    -18.45961504
      4.44000000	     -0.10374105	      1.76918176	      5.22320664	      0.56432973	      1.04145154	     -0.23918345	     17.18619254	     -0.21073407	     -8.92526705	    -12.43347020	      1.05898232	    -17.91971099	      0.00000000	     -9.71719096	     -0.69794222	     -5.44880585	    -40.54201557	    -24.39592612	    -20.82082082	      0.00000000	    -11.80832336	      1.37740311	    -17.49363192
      4.45000000	     -0.26532440	      0.71529589	      5.21953555	      0.58248464	      1.04340666	     -0.23802268	     15.99641130	      1.10494548	     -8.85033237	    -11.74211868	      1.67600963	    -17.99096900	      0.00000000	     -7.35977740	     -1.73725996	     -5.11406526	    -44.13615137	    -25.82274449	    -25.42513176	      0.00000000	    -11.46668959	      2.43501134	    -16.61510595
      4.46000000	     -0.46695119	     -0.17070387	      5.36275573	      0.60034665	      1.04557607	     -0.23702009	     14.59466007	      2.23801449	     -8.92692754	    -10.57885642	      2.16265960	    -17.96580008	      0.00000000	     -4.95860491	     -2.52711118	     -4.45556466	    -47.31955116	    -26.58578819	    -29.94486416	      0.00000000	    -11.12054392	      3.29365447	    -15.88609012
      4.47000000	     -0.69205044	     -0.77484252	      5.63395052	      0.61798670	      1.04796280	     -0.23612538	     12.98600746	      3.09136908	     -8.98869101	     -9.00705024	      2.55626489	    -17.90320780	      0.00000000	     -2.57954160	     -2.93507980	     -3.53222934	    -49.98991676	    -26.69322836	    -34.08431766	      0.00000000	    -10.77551502	      3.80809228	    -15.31090635
      4.48000000	     -0.94712741	     -1.04352644	      6.00821291	      0.63540647	      1.05050530	     -0.23529249	     11.24463416	      3.60407450	     -9.08923518	     -7.15858099	      2.72320935	    -17.80957657	      0.00000000	     -0.24645878	     -2.90945742	     -2.45378287	    -52.10446110	    -26.00838746	    -37.53900486	      0.00000000	    -10.43309458	      3.90823081	    -14.86567926
      4.49000000	     -1.23529471	     -0.95980742	      6.42563734	      0.65259986	      1.05310256	     -0.23445370	      9.44194640	      3.76205655	     -9.19617325	     -5.17086007	      2.74373273	    -17.70682207	      0.00000000	      2.01454960	     -2.43474782	     -1.33633025	    -53.66045898	    -24.62140089	    -40.14151628	      0.00000000	    -10.10549948	      3.56656942	    -14.47513781
      4.50000000	     -1.51637400	     -0.54043693	      6.84933945	      0.66958430	      1.05571486	     -0.23357929	      7.58723864	      3.58354403	     -9.33296980	     -3.14914232	      2.75701290	    -17.49871548	      0.00000000	      4.12942220	     -1.55002719	     -0.27039013	    -54.65764643	    -22.72946623	    -41.84649233	      0.00000000	     -9.85827297	      2.80630818	    -14.11933956
